<?xml version="1.0" encoding="UTF-8" standalone="no"?>
<svg
   id="svg15"
   version="1.1"
   viewBox="0 0 396.9 113.4"
   sodipodi:docname="T-FF.svg"
   inkscape:version="1.3.2 (091e20e, 2023-11-25)"
   xmlns:inkscape="http://www.inkscape.org/namespaces/inkscape"
   xmlns:sodipodi="http://sodipodi.sourceforge.net/DTD/sodipodi-0.dtd"
   xmlns="http://www.w3.org/2000/svg"
   xmlns:svg="http://www.w3.org/2000/svg">
  <defs
     id="defs1">
    <style
       id="style1">
      .cls-1 {
        font-family: LMRoman12-Italic, 'Latin Modern Roman';
        font-size: 19.2px;
        font-style: italic;
      }

      .cls-1, .cls-2 {
        fill: #000;
      }

      .cls-1, .cls-2, .cls-3 {
        isolation: isolate;
      }

      .cls-4 {
        stroke-width: 1.5px;
      }

      .cls-4, .cls-5, .cls-6 {
        fill: none;
        stroke: #000;
        stroke-miterlimit: 6;
      }

      .cls-5 {
        stroke-width: 1.4px;
      }

      .cls-6 {
        stroke-width: 1.4px;
      }

      .cls-2 {
        font-family: LMRoman12-Regular, 'Latin Modern Roman';
        font-size: 10px;
      }

      .cls-7 {
        fill: #fff;
        stroke-width: 0px;
      }
    </style>
  </defs>
  <sodipodi:namedview
     id="namedview15"
     bordercolor="#999999"
     borderopacity="1"
     inkscape:current-layer="svg15"
     inkscape:cx="92.176845"
     inkscape:cy="37.57732"
     inkscape:deskcolor="#d1d1d1"
     inkscape:document-units="cm"
     inkscape:pagecheckerboard="0"
     inkscape:pageopacity="0"
     inkscape:showpageshadow="2"
     inkscape:window-height="891"
     inkscape:window-maximized="0"
     inkscape:window-width="1472"
     inkscape:window-x="0"
     inkscape:window-y="37"
     inkscape:zoom="3.1135802"
     pagecolor="#ffffff" />
  <g
     id="g8">
    <path
       id="rect7"
       class="cls-7"
       style="fill:#ffffff;stroke-width:0px"
       d="M 80.900002,11 H 140.8 v 89.9 H 80.900002 Z" />
    <path
       id="rect8"
       class="cls-4"
       style="fill:none;stroke:#000000;stroke-width:1.5px;stroke-miterlimit:6"
       d="M 80.900002,11 H 140.8 v 89.9 H 80.900002 Z" />
  </g>
  <path
     id="line8"
     class="cls-6"
     style="fill:none;stroke:#000000;stroke-width:1.4px;stroke-miterlimit:6"
     d="M 21,26 H 80.900002" />
  <path
     id="line9"
     class="cls-5"
     style="fill:none;stroke:#000000;stroke-width:1.4px;stroke-miterlimit:6"
     d="m 140.8,41 h 44.9" />
  <g
     id="g11">
    <path
       id="ellipse9"
       class="cls-7"
       style="fill:#ffffff;stroke-width:0px"
       d="m 155.8,70.900002 a 7.5,7.5 0 0 1 -7.5,7.5 7.5,7.5 0 0 1 -7.5,-7.5 7.5,7.5 0 0 1 7.5,-7.5 7.5,7.5 0 0 1 7.5,7.5 z" />
    <path
       id="ellipse10"
       class="cls-5"
       style="fill:none;stroke:#000000;stroke-width:1.4px;stroke-miterlimit:6"
       d="m 155.8,70.900002 a 7.5,7.5 0 0 1 -7.5,7.5 7.5,7.5 0 0 1 -7.5,-7.5 7.5,7.5 0 0 1 7.5,-7.5 7.5,7.5 0 0 1 7.5,7.5 z" />
    <path
       id="ellipse11"
       class="cls-5"
       style="fill:none;stroke:#000000;stroke-width:1.4px;stroke-miterlimit:6"
       d="m 155.8,70.900002 a 7.5,7.5 0 0 1 -7.5,7.5 7.5,7.5 0 0 1 -7.5,-7.5 7.5,7.5 0 0 1 7.5,-7.5 7.5,7.5 0 0 1 7.5,7.5 z" />
  </g>
  <path
     id="line11"
     class="cls-5"
     style="fill:none;stroke:#000000;stroke-width:1.4px;stroke-miterlimit:6"
     d="m 185.7,70.900002 h -30" />
  <g
     id="text11"
     class="cls-3">
    <path
       d="m 11.6736,-12.902401 c 0,-0.2112 -0.1728,-0.2112 -0.2496,-0.2112 -0.6144,0 -1.3056,0.0384 -1.9391996,0.0384 -0.7680001,0 -1.5552001,-0.0384 -2.3040001,-0.0384 -0.1728,0 -0.384,0 -0.384,0.3456 0,0.211201 0.1344,0.211201 0.4608,0.211201 h 0.1536 c 0.768,0 1.4016001,0 1.4016001,0.4032 0,0.0768 -0.0384,0.2304 -0.0576,0.3072 l -2.2656,9.0815999 C 6.1632002,-1.4400001 5.0880002,0.0192 4.0128002,0.0192 c -0.7296001,0 -1.4592001,-0.46080002 -1.5744001,-1.3824001 0.0576,0.0192 0.096,0.0192 0.2304,0.0192 0.6336,0 1.0368,-0.576 1.0368,-1.0176 0,-0.4032 -0.3072,-0.672 -0.7104,-0.672 -0.0768,0 -1.0752,0 -1.0752,1.4016 0,1.30560009 0.9792,2.03520012 2.1312001,2.03520012 1.7472,0 3.4176001,-1.49760002 3.8208001,-3.11040012 L 10.1376,-11.8464 c 0.1536,-0.5952 0.3072,-0.7104 1.1136,-0.7104 0.2304,0 0.4224,0 0.4224,-0.345601 z"
       id="text1"
       class="cls-1"
       style="font-style:italic;font-size:19.2px;font-family:LMRoman12-Italic, 'Latin Modern Roman'"
       transform="translate(86.1 32.7)"
       aria-label="J" />
  </g>
  <g
     id="text12"
     class="cls-3">
    <path
       d="m 13.305601,-0.36480001 c 0,-0.17280001 -0.1344,-0.19200001 -0.3648,-0.19200001 C 12.3456,-0.57600002 12.096,-0.72960003 11.8656,-1.3440001 L 9.4080004,-8.0064003 12.979201,-11.0016 c 1.632,-1.3632 2.3424,-1.4976 2.8992,-1.5552 0.1536,-0.0192 0.3264,-0.0384 0.3264,-0.364801 0,-0.1152 -0.096,-0.192 -0.2112,-0.192 -0.4224,0 -0.9216,0.0384 -1.3632,0.0384 -0.576,0 -1.1904,-0.0384 -1.7472,-0.0384 -0.1536,0 -0.364801,0 -0.364801,0.3648 0,0.172801 0.153601,0.192001 0.230401,0.192001 0.2496,0.0192 0.4416,0.1152 0.4416,0.3648 0,0.3456 -0.2304,0.5568 -0.3648,0.672 -0.0576,0.0384 -0.0768,0.0576 -0.1152,0.1152 -0.0768,0.0576 -0.096,0.0768 -0.172801,0.1536 L 5.7024002,-5.5296002 7.2576003,-11.7504 c 0.1728,-0.6528 0.288,-0.8064 1.4784,-0.8064 0.3264001,0 0.4992001,0 0.4992001,-0.345601 0,-0.2112 -0.1728,-0.2112 -0.2688,-0.2112 -0.6720001,0 -1.3824001,0.0384 -2.0736001,0.0384 -0.7104001,0 -1.4400001,-0.0384 -2.1312001,-0.0384 -0.1536,0 -0.3648,0 -0.3648,0.3648 0,0.192001 0.1344,0.192001 0.4992,0.192001 0.48,0 1.0176,0 1.0176,0.3072 0,0.1152 0,0.1728 -0.0384,0.288 L 3.2448001,-1.3824001 c -0.1728,0.67200007 -0.288,0.82560008 -1.4592,0.82560008 -0.3456,0 -0.5184,0 -0.5184,0.36480001 C 1.2672001,0 1.4592001,0 1.5360001,0 c 0.672,0 1.3824,-0.0384 2.0736,-0.0384 0.6912001,0 1.4400001,0.0384 2.1120001,0.0384 0.1536,0 0.3648,0 0.3648,-0.36480001 0,-0.19200001 -0.1536,-0.19200001 -0.4416,-0.19200001 -1.0752,0 -1.0752,-0.15360001 -1.0752,-0.32640002 0,-0.15359996 0.1536,-0.72960006 0.9408,-3.84000016 L 8.2560003,-7.0464003 10.272,-1.5744001 c 0.096,0.2304 0.096,0.2688 0.096,0.4032001 0,0.57599998 -0.6911996,0.61439998 -0.9215996,0.61439998 -0.1344,0 -0.3264,0.0192 -0.3264,0.36480001 C 9.1200004,0 9.3120004,0 9.3888004,0 10.0032,0 10.656,-0.0384 11.2896,-0.0384 12.652801,-0.0384 12.921601,0 12.979201,0 c 0.1152,0 0.3264,0 0.3264,-0.36480001 z"
       id="text2"
       class="cls-1"
       style="font-style:italic;font-size:19.2px;font-family:LMRoman12-Italic, 'Latin Modern Roman'"
       transform="translate(86.1 62.7)"
       aria-label="K" />
  </g>
  <path
     id="polyline12"
     class="cls-5"
     style="fill:none;stroke:#000000;stroke-width:1.4px;stroke-miterlimit:6"
     d="m 50.9,26 v 29.9 h 30" />
  <g
     id="text13"
     class="cls-3">
    <path
       d="m 14.592001,-9.1008004 0.576,-3.4751996 c 0.0384,-0.192001 0.0384,-0.230401 0.0384,-0.230401 0,-0.2112 -0.1344,-0.2112 -0.4608,-0.2112 H 5.1072002 c -0.4032,0 -0.4416,0 -0.5376,0.3072 l -1.1712001,3.5328006 c -0.0192,0.0576 -0.0576,0.192 -0.0576,0.2496 0,0.1920001 0.192,0.1920001 0.2496,0.1920001 0.1920001,0 0.2112001,-0.0192 0.3648001,-0.4032001 C 4.9152002,-12 5.3376002,-12.4608 7.9488003,-12.4608 h 0.6528 c 0.4416001,0 0.4416001,0.0768 0.4416001,0.2112 0,0.1152 -0.0576,0.3648 -0.0768,0.4032 L 6.3744003,-1.4592001 c -0.1728001,0.71040007 -0.3264001,0.90240008 -1.9584001,0.90240008 h -0.2304 c -0.3456,0 -0.5184001,0 -0.5184001,0.36480001 C 3.6672001,0 3.8400002,0 3.9936002,0 L 6.7200003,-0.0384 9.5040004,0 c 0.192,0 0.4032,0 0.4032,-0.34560001 0,-0.21120001 -0.1344,-0.21120001 -0.4608,-0.21120001 h -0.2304 c -0.3264,0 -0.6336001,-0.0192 -0.9408001,-0.0576 -0.3648,-0.0384 -0.5568,-0.0576 -0.5568,-0.36480002 0,-0.096 0,-0.13439996 0.0384,-0.32640006 L 10.368,-11.7504 c 0.1344,-0.5376 0.2496,-0.6336 0.4032,-0.672 0.1344,-0.0384 0.6912,-0.0384 1.0368,-0.0384 1.670401,0 2.457601,0.1152 2.457601,1.44 0,0.576 -0.1536,1.5551996 -0.2112,1.8623996 l -0.0384,0.2112 c 0,0.2112001 0.192,0.2112001 0.2688,0.2112001 0.2304,0 0.2496,-0.0576 0.3072,-0.3648001 z"
       id="text3"
       class="cls-1"
       style="font-style:italic;font-size:19.2px;font-family:LMRoman12-Italic, 'Latin Modern Roman'"
       transform="translate(.7 33.5)"
       aria-label="T" />
  </g>
  <path
     id="line14"
     class="cls-5"
     style="fill:none;stroke:#000000;stroke-width:1.4px;stroke-miterlimit:6"
     d="m 80.900002,85.800003 h -32" />
  <g
     id="text15"
     class="cls-3"
     transform="matrix(1.5457179,0,0,1.5457179,-53.993328,-48.847208)">
    <path
       d="m 6.52,-2.32 c 0,-0.11 0,-0.17 -0.11,-0.17 -0.1,0 -0.11,0.05 -0.11,0.12 -0.09,1.59 -1.25,2.29 -2.22,2.29 -0.7,0 -2.61,-0.42 -2.61,-3.34 0,-2.89 1.88,-3.33 2.6,-3.33 1.05,0 1.97,0.89 2.17,2.39 0.02,0.12 0.02,0.15 0.14,0.15 0.14,0 0.14,-0.03 0.14,-0.23 v -2.37 c 0,-0.18 0,-0.23 -0.1,-0.23 -0.06,0 -0.07,0.02 -0.13,0.12 L 5.8,-6.13 C 5.35,-6.69 4.67,-7.04 3.95,-7.04 c -1.83,0 -3.41,1.58 -3.41,3.62 0,2.07 1.6,3.63 3.41,3.63 1.64,0 2.57,-1.43 2.57,-2.53 z M 9.5500073,0 v -0.29 c -0.64,0 -0.76,0 -0.76,-0.45 v -6.2 l -1.39,0.11 v 0.29 c 0.68,0 0.76,0.07 0.76,0.56 v 5.24 c 0,0.45 -0.11,0.45 -0.76,0.45 V 0 c 0.28,-0.02 0.77,-0.02 1.07,-0.02 0.3,0 0.8,0 1.08,0.02 z m 5.2399937,0 v -0.29 c -0.27,0 -0.58,0 -0.86,-0.41 l -1.34,-1.95 -0.07,-0.1 c 0,-0.03 0.63,-0.57 0.71,-0.65 0.69,-0.6 1.13,-0.61 1.34,-0.62 v -0.29 c -0.2,0.02 -0.46,0.02 -0.76,0.02 -0.26,0 -0.77,0 -1,-0.02 v 0.29 c 0.17,0.01 0.29,0.1 0.29,0.26 0,0.2 -0.21,0.38 -0.21,0.38 l -1.43,1.26 v -4.82 l -1.39,0.11 v 0.29 c 0.68,0 0.76,0.07 0.76,0.56 v 5.24 c 0,0.45 -0.11,0.45 -0.76,0.45 V 0 c 0.28,-0.02 0.76,-0.02 1.06,-0.02 0.3,0 0.78,0 1.06,0.02 v -0.29 c -0.64,0 -0.76,0 -0.76,-0.45 V -1.8 l 0.64,-0.56 0.96,1.38 c 0.15,0.21 0.22,0.32 0.22,0.46 0,0.18 -0.14,0.23 -0.35,0.23 V 0 c 0.25,-0.02 0.74,-0.02 1.01,-0.02 0.43,0 0.45,0 0.88,0.02 z"
       id="text4"
       class="cls-2"
       style="font-size:10px;font-family:LMRoman12-Regular, 'Latin Modern Roman'"
       transform="translate(98.4,89.3)"
       aria-label="Clk" />
  </g>
  <path
     id="polyline15"
     class="cls-5"
     style="fill:none;stroke:#000000;stroke-width:1.4px;stroke-miterlimit:6"
     d="m 80.9,78.4 14.9,7.5 -14.9,7.5" />
</svg>
