<?xml version="1.0" encoding="UTF-8" standalone="no"?>
<!-- Created with Inkscape (http://www.inkscape.org/) -->

<svg
   width="550"
   height="350"
   id="svg1951"
   sodipodi:version="0.32"
   inkscape:version="1.3.2 (091e20e, 2023-11-25)"
   sodipodi:docname="Full-Adder.svg"
   version="1.0"
   xmlns:inkscape="http://www.inkscape.org/namespaces/inkscape"
   xmlns:sodipodi="http://sodipodi.sourceforge.net/DTD/sodipodi-0.dtd"
   xmlns="http://www.w3.org/2000/svg"
   xmlns:svg="http://www.w3.org/2000/svg"
   xmlns:rdf="http://www.w3.org/1999/02/22-rdf-syntax-ns#"
   xmlns:cc="http://creativecommons.org/ns#"
   xmlns:dc="http://purl.org/dc/elements/1.1/">
  <defs
     id="defs1953" />
  <sodipodi:namedview
     id="base"
     pagecolor="#ffffff"
     bordercolor="#666666"
     borderopacity="1.0"
     gridtolerance="10000"
     guidetolerance="10"
     objecttolerance="10"
     inkscape:pageopacity="0.0"
     inkscape:pageshadow="2"
     inkscape:zoom="0.85252591"
     inkscape:cx="370.66322"
     inkscape:cy="258.05667"
     inkscape:document-units="px"
     inkscape:current-layer="layer1"
     inkscape:window-width="1472"
     inkscape:window-height="891"
     inkscape:window-x="0"
     inkscape:window-y="37"
     width="550px"
     height="350px"
     inkscape:showpageshadow="2"
     inkscape:pagecheckerboard="0"
     inkscape:deskcolor="#d1d1d1"
     inkscape:window-maximized="0" />
  <metadata
     id="metadata1956">
    <rdf:RDF>
      <cc:Work
         rdf:about="">
        <dc:format>image/svg+xml</dc:format>
        <dc:type
           rdf:resource="http://purl.org/dc/dcmitype/StillImage" />
      </cc:Work>
    </rdf:RDF>
  </metadata>
  <g
     inkscape:label="Layer 1"
     inkscape:groupmode="layer"
     id="layer1">
    <path
       style="fill:none;fill-opacity:0.75;fill-rule:evenodd;stroke:#000000;stroke-width:2;stroke-linecap:butt;stroke-linejoin:miter;stroke-miterlimit:4;stroke-dasharray:none;stroke-opacity:1"
       d="M 92.545315,80.140217 V 276.68403 H 269.99724"
       id="path3110" />
    <path
       style="fill:none;fill-opacity:0.75;fill-rule:evenodd;stroke:#000000;stroke-width:2;stroke-linecap:butt;stroke-linejoin:miter;stroke-miterlimit:4;stroke-dasharray:none;stroke-opacity:1"
       d="m 70.609065,38.404979 c 0,260.922401 0,260.922401 0,260.922401 H 270.72028"
       id="path3112" />
    <path
       style="fill:none;fill-opacity:0.75;fill-rule:evenodd;stroke:#000000;stroke-width:2;stroke-linecap:butt;stroke-linejoin:miter;stroke-miterlimit:4;stroke-dasharray:none;stroke-opacity:1"
       d="m 320.92487,197.85756 h 16.26345 v 25.10229 h 72.12489"
       id="path3104" />
    <path
       style="fill:none;fill-opacity:0.75;fill-rule:evenodd;stroke:#000000;stroke-width:2;stroke-linecap:butt;stroke-linejoin:miter;stroke-miterlimit:4;stroke-dasharray:none;stroke-opacity:1"
       d="m 320.92487,289.78144 h 16.26345 V 265.73981 H 407.899"
       id="path3106" />
    <path
       style="fill:none;fill-opacity:0.75;fill-rule:evenodd;stroke:#000000;stroke-width:2;stroke-linecap:butt;stroke-linejoin:miter;stroke-miterlimit:4;stroke-dasharray:none;stroke-opacity:1"
       d="M 52.433925,39 H 157.43392"
       id="path3080" />
    <path
       style="fill:none;fill-opacity:0.75;fill-rule:evenodd;stroke:#000000;stroke-width:2;stroke-linecap:butt;stroke-linejoin:miter;stroke-miterlimit:4;stroke-dasharray:none;stroke-opacity:1"
       d="M 52.433925,80.5 H 157.43392"
       id="path3082" />
    <path
       style="fill:none;fill-opacity:0.75;fill-rule:evenodd;stroke:#000000;stroke-width:2;stroke-linecap:butt;stroke-linejoin:miter;stroke-miterlimit:4;stroke-dasharray:none;stroke-opacity:1"
       d="m 200.27478,61.253367 h 97.58073"
       id="path3084" />
    <path
       style="fill:none;fill-opacity:0.75;fill-rule:evenodd;stroke:#000000;stroke-width:2;stroke-linecap:butt;stroke-linejoin:miter;stroke-miterlimit:4;stroke-dasharray:none;stroke-opacity:1"
       d="M 209.9091,62.446609 V 215.88878 h 59.39697"
       id="path3086" />
    <path
       style="fill:none;fill-opacity:0.75;fill-rule:evenodd;stroke:#000000;stroke-width:2;stroke-linecap:butt;stroke-linejoin:miter;stroke-miterlimit:4;stroke-dasharray:none;stroke-opacity:1"
       d="M 52.224293,122.55069 H 227.58677 V 97.094842 h 69.29646"
       id="path3088" />
    <path
       style="fill:none;fill-opacity:0.75;fill-rule:evenodd;stroke:#000000;stroke-width:2;stroke-linecap:butt;stroke-linejoin:miter;stroke-miterlimit:4;stroke-dasharray:none;stroke-opacity:1"
       d="m 227.58669,122.49991 v 60.10407 h 40.30509"
       id="path3090" />
    <g
       id="g3042"
       transform="translate(-40.566076,6)">
      <path
         sodipodi:nodetypes="czscs"
         d="m 156.61566,98.46547 c -0.0745,0.003 22.30611,-4.04421 22.30611,-43.10324 0,-39.44356 -22.30776,-43.10343 -22.30611,-43.10325 36.03435,3.95083 59.50263,-1.64433 84.30291,43.10325 -18.49225,39.56581 -42.74408,41.44383 -84.30291,43.10324 z"
         style="fill:#ffffff;fill-opacity:1;fill-rule:evenodd;stroke:#000000;stroke-width:3.125;stroke-linecap:butt;stroke-linejoin:round;stroke-miterlimit:4;stroke-dasharray:none;stroke-dashoffset:0;stroke-opacity:1"
         id="path2031" />
      <path
         id="path1315"
         style="fill:none;fill-opacity:1;fill-rule:evenodd;stroke:#000000;stroke-width:3.125;stroke-linecap:round;stroke-linejoin:round;stroke-miterlimit:4;stroke-dasharray:none;stroke-dashoffset:0;stroke-opacity:1"
         d="m 143.03563,97.42687 c -0.0745,0.0029 22.30611,-3.94676 22.30611,-42.06463 0,-38.49311 -22.30776,-42.0648 -22.30611,-42.06462"
         sodipodi:nodetypes="czs" />
    </g>
    <path
       style="font-style:italic;font-size:40px;line-height:1.25;font-family:'Latin Modern Roman';-inkscape-font-specification:'Latin Modern Roman,  Italic';stroke-width:1px"
       d="m 33.099669,43.67249 c 0,-0.44 -0.28,-0.44 -0.8,-0.44 -1.96,0 -2.16,-0.28 -2.24,-1.32 l -1.76,-25.12 c -0.04,-0.84 -0.08,-0.96 -0.64,-0.96 -0.56,0 -0.68,0.24 -0.96,0.72 l -13.32,23.36 c -1.24,2.2 -2.36,3.12 -4.3599999,3.32 -0.44,0.04 -0.76,0.08 -0.76,0.76 0,0.4 0.48,0.4 0.48,0.4 0.96,0 2.0399999,-0.08 3.0399999,-0.08 1.08,0 2.24,0.08 3.28,0.08 0.28,0 0.72,0 0.72,-0.76 0,-0.36 -0.32,-0.4 -0.56,-0.4 -0.96,-0.08 -1.52,-0.56 -1.52,-1.32 0,-0.56 0.32,-1.08 0.68,-1.72 l 2.92,-5.16 h 9.28 l 0.44,6.44 c 0.04,0.64 0.12,1.72 -2.36,1.76 -0.56,0 -0.92,0 -0.92,0.76 0,0.4 0.4,0.4 0.56,0.4 1.32,0 2.76,-0.08 4.12,-0.08 1.32,0 2.68,0.08 3.96,0.08 0.24,0 0.72,0 0.72,-0.72 z m -6.6,-9.8 h -8.52 l 7.6,-13.32 z"
       id="text3014"
       aria-label="A" />
    <path
       style="font-style:italic;font-size:40px;line-height:1.25;font-family:'Latin Modern Roman';-inkscape-font-specification:'Latin Modern Roman,  Italic';stroke-width:1px"
       d="m 29.585489,81.958639 c 0,-3.12 -2.36,-5.08 -5.48,-5.48 4.28,-0.84 7.8,-4.12 7.8,-7.64 0,-2.8 -2.2,-5.4 -6.56,-5.4 h -11.88 c -0.72,0 -1.08,0 -1.08,0.76 0,0.4 0.28,0.4 1.04,0.4 1,0 2.12,0 2.12,0.64 0,0.24 0,0.36 -0.08,0.6 l -5.4800005,22.04 c -0.36,1.4 -0.6,1.72 -3.04,1.72 -0.72,0 -1.08,0 -1.08,0.76 0,0.4 0.32,0.4 0.96,0.4 H 19.505489 c 5.48,0 10.08,-4.56 10.08,-8.8 z m -0.92,-13.32 c 0,3.48 -3.16,7.52 -7.72,7.52 h -5.24 l 2.48,-10.04 c 0.36,-1.52 0.64,-1.52 1.96,-1.52 h 4.68 c 3.16,0 3.84,2.36 3.84,4.04 z m -2.36,12.84 c 0,4.2 -3.44,8.12 -7.68,8.12 h -4.92 c -1.16,0 -1.2,-0.04 -1.2,-0.48 0,-0.16 0,-0.24 0.16,-0.8 l 2.8,-11.36 h 6.84 c 3.12,0 4,2.48 4,4.52 z"
       id="text3018"
       aria-label="B" />
    <g
       id="g3046"
       transform="translate(102.77202,21.73827)">
      <path
         sodipodi:nodetypes="czscs"
         d="m 156.61566,98.46547 c -0.0745,0.003 22.30611,-4.04421 22.30611,-43.10324 0,-39.44356 -22.30776,-43.10343 -22.30611,-43.10325 36.03435,3.95083 59.50263,-1.64433 84.30291,43.10325 -18.49225,39.56581 -42.74408,41.44383 -84.30291,43.10324 z"
         style="fill:#ffffff;fill-opacity:1;fill-rule:evenodd;stroke:#000000;stroke-width:3.125;stroke-linecap:butt;stroke-linejoin:round;stroke-miterlimit:4;stroke-dasharray:none;stroke-dashoffset:0;stroke-opacity:1"
         id="path3048" />
      <path
         id="path3050"
         style="fill:none;fill-opacity:1;fill-rule:evenodd;stroke:#000000;stroke-width:3.125;stroke-linecap:round;stroke-linejoin:round;stroke-miterlimit:4;stroke-dasharray:none;stroke-dashoffset:0;stroke-opacity:1"
         d="m 143.03563,97.42687 c -0.0745,0.0029 22.30611,-3.94676 22.30611,-42.06463 0,-38.49311 -22.30776,-42.0648 -22.30611,-42.06462"
         sodipodi:nodetypes="czs" />
    </g>
    <path
       id="rect2193"
       style="fill:#ffffff;fill-opacity:1;fill-rule:evenodd;stroke:#000000;stroke-width:3.125;stroke-linecap:butt;stroke-linejoin:round;stroke-miterlimit:4;stroke-dasharray:none;stroke-dashoffset:0;stroke-opacity:1"
       d="m 283.29026,236.66266 -37.4828,-3e-5 v -76.65834 l 37.72462,-1e-5 c 20.44868,-1e-5 37.24097,17.17147 37.24097,38.32918 0,21.15772 -16.79229,38.3292 -37.48279,38.3292 z"
       sodipodi:nodetypes="ccccsc" />
    <path
       id="path3052"
       style="fill:#ffffff;fill-opacity:1;fill-rule:evenodd;stroke:#000000;stroke-width:3;stroke-linecap:butt;stroke-linejoin:round;stroke-miterlimit:4;stroke-dasharray:none;stroke-dashoffset:0;stroke-opacity:1"
       d="m 283.29025,328.15762 -37.48279,-3e-5 v -76.65834 l 37.72461,-1e-5 c 20.44868,-10e-6 37.24098,17.17147 37.24098,38.32918 0,21.15772 -16.7923,38.3292 -37.4828,38.3292 z"
       sodipodi:nodetypes="ccccsc" />
    <path
       id="path3056"
       style="fill:#ffffff;fill-opacity:1;fill-rule:evenodd;stroke:#000000;stroke-width:3.125;stroke-linecap:butt;stroke-linejoin:round;stroke-miterlimit:4;stroke-dasharray:none;stroke-dashoffset:0;stroke-opacity:1"
       d="m 372.83348,286.25527 c -0.0745,0.003 22.30611,-4.04421 22.30611,-43.10324 0,-39.44356 -22.30776,-43.10343 -22.30611,-43.10325 36.03435,3.95083 59.50263,-1.64433 84.30291,43.10325 -18.49225,39.56581 -42.74408,41.44383 -84.30291,43.10324 z"
       sodipodi:nodetypes="czscs" />
    <g
       id="text3066"
       style="font-size:33.3333px;line-height:0%;font-family:'Bitstream Vera Sans';stroke-width:1px"
       aria-label="Cin"
       transform="translate(2.8356921,1.0008325)">
      <path
         style="font-style:italic;line-height:1;font-family:'Latin Modern Roman';-inkscape-font-specification:'Latin Modern Roman,  Italic'"
         d="m 23.437822,114.55367 2.033332,-8.13333 c 0.03333,-0.1 0.06667,-0.43333 0.06667,-0.43333 0,-0.3 -0.299999,-0.3 -0.299999,-0.3 0,0 -0.2,0 -0.433333,0.3 l -2.166665,2.66667 c -1.066665,-1.96667 -2.766664,-2.96667 -4.933328,-2.96667 -6.733327,0 -13.7999872,7.46666 -13.7999872,15.36665 0,5.66666 3.6666631,8.8 7.8999922,8.8 3.63333,0 6.266661,-2.6 6.533327,-2.83334 2.899998,-2.86666 3.43333,-5.86666 3.43333,-5.86666 0,-0.3 -0.266666,-0.3 -0.466666,-0.3 -0.266666,0 -0.399999,0.0333 -0.499999,0.33334 -1.499999,5.09999 -5.399995,7.69999 -8.499992,7.69999 -3.0333307,0 -5.7666614,-2.13333 -5.7666614,-6.66666 0,-0.93333 0.3666663,-6.63333 3.5999964,-11.09999 1.699999,-2.3 4.733329,-4.46666 7.799993,-4.46666 4.299996,0 4.699995,4.63333 4.699995,6.09999 0,0.5 -0.06667,1.26667 -0.166666,1.76667 v 0.3 c 0,0.3 0.266666,0.3 0.433333,0.3 0.333333,0 0.399999,-0.0333 0.533332,-0.56667 z"
         id="path4" />
      <path
         style="font-style:italic;font-size:20px;line-height:100%;font-family:'Latin Modern Roman';-inkscape-font-specification:'Latin Modern Roman,  Italic'"
         d="m 28.764515,126.29366 c 0,-0.18 -0.18,-0.18 -0.26,-0.18 -0.24,0 -0.26,0.06 -0.34,0.36 -0.18,0.68 -0.7,2.48 -1.84,2.48 -0.22,0 -0.46,-0.1 -0.46,-0.58 0,-0.52 0.28,-1.24 0.64,-2.22 l 1.18,-3.24 c 0.18,-0.5 0.22,-0.66 0.22,-1.02 0,-1.02 -0.66,-1.56 -1.44,-1.56 -1.84,0 -2.5,2.96 -2.5,3.06 0,0.18 0.18,0.18 0.28,0.18 0.24,0 0.26,-0.06 0.34,-0.34 0.16,-0.64 0.68,-2.5 1.84,-2.5 0.44,0 0.44,0.38 0.44,0.6 0,0.52 -0.12,0.86 -0.26,1.22 l -1.6,4.34 c -0.16,0.44 -0.16,0.7 -0.16,0.88 0,1.16 0.78,1.58 1.44,1.58 1.84,0 2.48,-2.98 2.48,-3.06 z m 0.54,-9.34 c 0,-0.56 -0.4,-0.8 -0.8,-0.8 -0.6,0 -1.18,0.56 -1.18,1.14 0,0.54 0.42,0.8 0.8,0.8 0.6,0 1.18,-0.54 1.18,-1.14 z m 10.459985,9.34 c 0,-0.18 -0.18,-0.18 -0.26,-0.18 -0.24,0 -0.26,0.06 -0.34,0.36 -0.18,0.68 -0.72,2.48 -1.84,2.48 -0.3,0 -0.46,-0.14 -0.46,-0.6 0,-0.48 0.22,-1.1 0.38,-1.5 0.52,-1.46 1.2,-3.32 1.2,-4.48 0,-1.06 -0.46,-2.04 -2,-2.04 -1.24,0 -2.18,0.72 -2.84,1.62 -0.06,-0.9 -0.68,-1.62 -1.6,-1.62 -0.46,0 -0.98,0.2 -1.4,1.06 -0.38,0.74 -0.64,1.98 -0.64,1.98 0,0.16 0.1,0.2 0.28,0.2 0.22,0 0.24,-0.02 0.36,-0.48 0.3,-1.18 0.68,-2.36 1.36,-2.36 0.52,0 0.52,0.58 0.52,0.82 0,0.38 -0.08,0.82 -0.16,1.1 l -1.46,5.84 c -0.08,0.28 -0.08,0.3 -0.08,0.38 0,0.24 0.16,0.48 0.52,0.48 0.46,0 0.66,-0.36 0.74,-0.7 l 1.22,-4.92 c 0.12,-0.44 1.2,-3 3.12,-3 0.92,0 0.92,1 0.92,1.34 0,1.24 -0.88,3.64 -1.22,4.62 -0.18,0.5 -0.26,0.68 -0.26,1.1 0,0.96 0.62,1.56 1.44,1.56 1.86,0 2.5,-2.98 2.5,-3.06 z"
         id="path5" />
    </g>
    <path
       id="path3100"
       style="opacity:1;stroke:#000000;stroke-width:3.125;stroke-linecap:square;stroke-linejoin:bevel"
       d="m 231.45421,122.55069 a 4,4 0 0 1 -4,4 4,4 0 0 1 -4,-4 4,4 0 0 1 4,-4 4,4 0 0 1 4,4 z" />
    <path
       id="path3102"
       style="opacity:1;stroke:#000000;stroke-width:3.125;stroke-linecap:square;stroke-linejoin:bevel"
       d="m 213.9975,61.297554 a 4,4 0 0 1 -4,4 4,4 0 0 1 -4,-4 4,4 0 0 1 4,-4 4,4 0 0 1 4,4 z" />
    <path
       id="path3114"
       style="opacity:1;stroke:#000000;stroke-width:3.125;stroke-linecap:square;stroke-linejoin:bevel"
       d="m 74.609055,39.112083 a 4,4 0 0 1 -4,4 4,4 0 0 1 -4,-4 4,4 0 0 1 4,-4 4,4 0 0 1 4,4 z" />
    <path
       id="path3116"
       style="opacity:1;stroke:#000000;stroke-width:3.125;stroke-linecap:square;stroke-linejoin:bevel"
       d="m 96.52935,80.477844 a 4,4 0 0 1 -4,4 4,4 0 0 1 -4,-4 4,4 0 0 1 4,-4 4,4 0 0 1 4,4 z" />
    <path
       style="fill:none;fill-opacity:0.75;fill-rule:evenodd;stroke:#000000;stroke-width:2;stroke-linecap:butt;stroke-linejoin:miter;stroke-miterlimit:4;stroke-dasharray:none;stroke-opacity:1"
       d="m 343.43392,77.5 c 142.5,0 142.5,0 142.5,0"
       id="path3118" />
    <path
       id="path1-9-1"
       style="fill:#ffffff;stroke:#000000"
       d="m 486.5,77.5 a 4,4 0 0 1 -4,4 4,4 0 0 1 -4,-4 4,4 0 0 1 4,-4 4,4 0 0 1 4,4 z" />
    <path
       style="fill:none;fill-opacity:0.75;fill-rule:evenodd;stroke:#000000;stroke-width:2;stroke-linecap:butt;stroke-linejoin:miter;stroke-miterlimit:4;stroke-dasharray:none;stroke-opacity:1"
       d="m 456.93392,243.5 h 28.5 v 0"
       id="path3120" />
    <g
       id="text3122"
       style="font-size:33.3333px;line-height:0%;font-family:'Bitstream Vera Sans';stroke-width:1px"
       aria-label="Cout">
      <path
         style="font-style:italic;line-height:125%;font-family:'Latin Modern Roman';-inkscape-font-specification:'Latin Modern Roman,  Italic'"
         d="m 511.90131,239.54169 2.03333,-8.13332 c 0.0333,-0.1 0.0667,-0.43334 0.0667,-0.43334 0,-0.3 -0.3,-0.3 -0.3,-0.3 0,0 -0.2,0 -0.43333,0.3 l -2.16666,2.66667 c -1.06667,-1.96667 -2.76667,-2.96667 -4.93333,-2.96667 -6.73333,0 -13.79999,7.46666 -13.79999,15.36666 0,5.66666 3.66666,8.79999 7.89999,8.79999 3.63333,0 6.26666,-2.6 6.53333,-2.83333 2.9,-2.86667 3.43333,-5.86666 3.43333,-5.86666 0,-0.3 -0.26667,-0.3 -0.46667,-0.3 -0.26666,0 -0.4,0.0333 -0.5,0.33333 -1.49999,5.09999 -5.39999,7.69999 -8.49999,7.69999 -3.03333,0 -5.76666,-2.13333 -5.76666,-6.66666 0,-0.93333 0.36667,-6.63333 3.6,-11.09999 1.7,-2.3 4.73333,-4.46666 7.79999,-4.46666 4.3,0 4.7,4.63333 4.7,6.09999 0,0.5 -0.0667,1.26667 -0.16667,1.76667 v 0.3 c 0,0.3 0.26667,0.3 0.43333,0.3 0.33334,0 0.4,-0.0333 0.53334,-0.56667 z"
         id="path2" />
      <path
         style="font-style:italic;font-size:20px;line-height:125%;font-family:'Latin Modern Roman';-inkscape-font-specification:'Latin Modern Roman,  Italic'"
         d="m 520.708,248.56168 c 0,-2.08 -1.28,-3.24 -2.78,-3.24 -2.44,0 -4.96,2.82 -4.96,5.78 0,2.16 1.34,3.24 2.78,3.24 2.44,0 4.96,-2.86 4.96,-5.78 z m -1.28,-0.76 c 0,0.86 -0.48,3.12 -1.12,4.22 -0.82,1.42 -1.84,1.92 -2.54,1.92 -0.84,0 -1.52,-0.72 -1.52,-2.08 0,-0.92 0.48,-3.12 1.14,-4.26 0.74,-1.28 1.76,-1.88 2.5,-1.88 1.02,0 1.54,0.94 1.54,2.08 z m 12.3,3.48 c 0,-0.18 -0.18,-0.18 -0.26,-0.18 -0.24,0 -0.26,0.02 -0.38,0.48 -0.4,1.66 -0.78,2.36 -1.34,2.36 -0.44,0 -0.54,-0.42 -0.54,-0.8 0,-0.3 0.08,-0.76 0.16,-1.06 l 1.42,-5.68 c 0.08,-0.28 0.08,-0.32 0.08,-0.4 0,-0.3 -0.24,-0.48 -0.5,-0.48 -0.56,0 -0.72,0.5 -0.78,0.78 l -1.44,5.78 c 0,0 0,0.22 -0.04,0.32 -0.4,0.84 -1.14,1.54 -2.06,1.54 -0.9,0 -1.08,-0.9 -1.08,-1.56 0,-1.2 0.7,-3.1 1.16,-4.38 0.16,-0.46 0.26,-0.72 0.26,-1.12 0,-0.8 -0.48,-1.56 -1.46,-1.56 -1.82,0 -2.5,2.94 -2.5,3.06 0,0.18 0.18,0.18 0.28,0.18 0.24,0 0.26,-0.06 0.34,-0.34 0.16,-0.6 0.68,-2.5 1.84,-2.5 0.24,0 0.46,0.1 0.46,0.58 0,0.5 -0.2,1.02 -0.62,2.18 -0.64,1.78 -0.9,2.8 -0.9,3.58 0,1.8 1.18,2.28 2.16,2.28 0.84,0 1.54,-0.4 2.18,-1.2 0.22,0.78 0.84,1.2 1.54,1.2 0.78,0 1.18,-0.58 1.44,-1.16 0.34,-0.7 0.58,-1.84 0.58,-1.9 z m 6.49999,0 c 0,-0.18 -0.18,-0.18 -0.26,-0.18 -0.22,0 -0.24,0.04 -0.34,0.26 -0.24,0.62 -1.02,2.58 -2.32,2.58 -0.3,0 -0.58,-0.14 -0.58,-0.8 0,-0.3 0.08,-0.76 0.16,-1.06 l 1.5,-5.98 h 1.66 c 0.34,0 0.54,0 0.54,-0.36 0,-0.22 -0.14,-0.22 -0.48,-0.22 h -1.58 l 0.8,-3.14 c 0.02,-0.04 0.04,-0.26 0.04,-0.26 0,-0.18 -0.14,-0.48 -0.52,-0.48 -0.5,0 -0.68,0.44 -0.76,0.74 l -0.78,3.14 h -1.7 c -0.36,0 -0.54,0 -0.54,0.38 0,0.2 0.16,0.2 0.48,0.2 h 1.62 l -1.44,5.76 c -0.1,0.4 -0.1,0.64 -0.1,0.72 0,0.92 0.54,1.76 1.64,1.76 1.96,0 2.96,-2.96 2.96,-3.06 z"
         id="path3" />
    </g>
    <path
       style="font-style:italic;font-size:40px;line-height:125%;font-family:'Latin Modern Roman';-inkscape-font-specification:'Latin Modern Roman,  Italic';stroke-width:1px"
       d="m 513.66543,78.76839 c 0,-3.16 -1.6,-4.96 -3.6,-5.6 l -3.88,-1.16 c -1.28,-0.36 -3.16,-0.92 -3.16,-3.92 0,-3.44 3.16,-6.92 6.52,-6.92 4.8,0 4.8,4.48 4.8,5.72 0,0.52 0,1.2 -0.16,2.36 -0.08,0.24 -0.08,0.36 -0.08,0.36 0,0.4 0.28,0.4 0.56,0.4 0.44,0 0.52,-0.04 0.68,-0.68 l 2.08,-8.32 c 0.04,-0.12 0.12,-0.44 0.12,-0.56 0,-0.36 -0.4,-0.36 -0.4,-0.36 -0.12,0 -0.24,0 -0.56,0.44 l -1.8,2.4 c -1.48,-2.84 -4.44,-2.84 -5.16,-2.84 -4.68,0 -9.08,4.64 -9.08,9.44 0,0.88 0.08,2.52 1.52,4.08 0.84,0.92 1.56,1.12 4.32,1.92 l 2.44,0.72 c 1.68,0.56 2.4,2.12 2.4,3.92 0,3.64 -3.12,7.76 -6.76,7.76 -3.08,0 -5.92,-1.56 -5.92,-5.64 0,-0.4 0.08,-1.48 0.32,-2.44 l 0.04,-0.32 c 0,-0.36 -0.32,-0.36 -0.52,-0.36 -0.44,0 -0.52,0.04 -0.68,0.68 l -2.08,8.32 c -0.04,0.12 -0.12,0.44 -0.12,0.56 0,0.36 0.4,0.36 0.4,0.36 0.16,0 0.2,-0.04 0.6,-0.52 l 1.8,-2.4 c 1.08,1.64 2.88,2.92 6.04,2.92 4.84,0 9.32,-5.12 9.32,-10.32 z"
       id="text3130"
       aria-label="S" />
    <path
       id="path1"
       style="fill:#ffffff;stroke:#000000"
       d="m 56.212505,38.694481 a 4,4 0 0 1 -4,4 4,4 0 0 1 -4,-4 4,4 0 0 1 4,-4 4,4 0 0 1 4,4 z" />
    <path
       id="path1-9"
       style="fill:#ffffff;stroke:#000000"
       d="m 56.212505,80.295471 a 4,4 0 0 1 -4,4 4,4 0 0 1 -4,-4 4,4 0 0 1 4,-4 4,4 0 0 1 4,4 z" />
    <path
       id="path1-9-5"
       style="fill:#ffffff;stroke:#000000"
       d="m 56.212505,121.95178 a 4,4 0 0 1 -4,4 4,4 0 0 1 -4,-4 4,4 0 0 1 4,-4 4,4 0 0 1 4,4 z" />
    <path
       id="path1-9-9"
       style="fill:#ffffff;stroke:#000000"
       d="m 486.59232,243.33018 a 4,4 0 0 1 -4,4 4,4 0 0 1 -4,-4 4,4 0 0 1 4,-4 4,4 0 0 1 4,4 z" />
  </g>
</svg>
