<?xml version="1.0" encoding="UTF-8" standalone="no"?>
<svg
   id="svg2"
   version="1.1"
   viewBox="0 0 300 150"
   sodipodi:docname="D-FF.svg"
   inkscape:version="1.3.2 (091e20e, 2023-11-25)"
   inkscape:export-filename="D-FF.png"
   inkscape:export-xdpi="96"
   inkscape:export-ydpi="96"
   xmlns:inkscape="http://www.inkscape.org/namespaces/inkscape"
   xmlns:sodipodi="http://sodipodi.sourceforge.net/DTD/sodipodi-0.dtd"
   xmlns="http://www.w3.org/2000/svg"
   xmlns:svg="http://www.w3.org/2000/svg">
  <defs
     id="defs1">
    <style
       id="style1">
      .cls-1 {
        font-family: LMRoman12-Regular, 'Latin Modern Roman';
        font-size: 16px;
      }

      .cls-1, .cls-2, .cls-3 {
        fill: #000;
      }

      .cls-1, .cls-4 {
        isolation: isolate;
      }

      .cls-5 {
        stroke-linecap: square;
      }

      .cls-5, .cls-6, .cls-7, .cls-8, .cls-3 {
        stroke: #000;
        stroke-width: 1.4px;
      }

      .cls-5, .cls-7 {
        fill: none;
      }

      .cls-6 {
        fill: #fff;
      }

      .cls-2 {
        stroke-width: 0px;
      }

      .cls-8 {
        fill: #edd400;
      }

      .cls-8, .cls-3 {
        stroke-linejoin: round;
      }
    </style>
  </defs>
  <g
     id="_defs"
     data-name="&amp;lt;defs">
    <inkscape:perspective
       id="perspective10"
       inkscape:persp3d-origin="372.04724 : 350.78739 : 1"
       inkscape:vp_x="0 : 526.18109 : 1"
       inkscape:vp_y="0 : 1000 : 0"
       inkscape:vp_z="744.09448 : 526.18109 : 1"
       sodipodi:type="inkscape:persp3d" />
    <inkscape:perspective
       id="perspective2557"
       inkscape:persp3d-origin="25 : 16.666667 : 1"
       inkscape:vp_x="0 : 25 : 1"
       inkscape:vp_y="0 : 1000 : 0"
       inkscape:vp_z="50 : 25 : 1"
       sodipodi:type="inkscape:persp3d" />
    <inkscape:perspective
       id="perspective5533"
       inkscape:persp3d-origin="32 : 21.333333 : 1"
       inkscape:vp_x="0 : 32 : 1"
       inkscape:vp_y="0 : 1000 : 0"
       inkscape:vp_z="64 : 32 : 1"
       sodipodi:type="inkscape:persp3d" />
    <inkscape:perspective
       id="perspective3275"
       inkscape:persp3d-origin="50 : 33.333333 : 1"
       inkscape:vp_x="0 : 50 : 1"
       inkscape:vp_y="0 : 1000 : 0"
       inkscape:vp_z="100 : 50 : 1"
       sodipodi:type="inkscape:persp3d" />
    <inkscape:perspective
       id="perspective2777"
       inkscape:persp3d-origin="75 : 40 : 1"
       inkscape:vp_x="0 : 60 : 1"
       inkscape:vp_y="0 : 1000 : 0"
       inkscape:vp_z="150 : 60 : 1"
       sodipodi:type="inkscape:persp3d" />
    <inkscape:perspective
       id="perspective2819"
       inkscape:persp3d-origin="372.04724 : 350.78739 : 1"
       inkscape:vp_x="0 : 526.18109 : 1"
       inkscape:vp_y="0 : 1000 : 0"
       inkscape:vp_z="744.09448 : 526.18109 : 1"
       sodipodi:type="inkscape:persp3d" />
    <inkscape:perspective
       id="perspective2806"
       inkscape:persp3d-origin="0.5 : 0.33333333 : 1"
       inkscape:vp_x="0 : 0.5 : 1"
       inkscape:vp_y="0 : 1000 : 0"
       inkscape:vp_z="1 : 0.5 : 1"
       sodipodi:type="inkscape:persp3d" />
    <inkscape:perspective
       id="perspective2714"
       inkscape:persp3d-origin="25 : 10 : 1"
       inkscape:vp_x="0 : 15 : 1"
       inkscape:vp_y="0 : 1000 : 0"
       inkscape:vp_z="50 : 15 : 1"
       sodipodi:type="inkscape:persp3d" />
    <inkscape:perspective
       id="perspective3244"
       inkscape:persp3d-origin="16 : 10.666667 : 1"
       inkscape:vp_x="0 : 16 : 1"
       inkscape:vp_y="0 : 1000 : 0"
       inkscape:vp_z="32 : 16 : 1"
       sodipodi:type="inkscape:persp3d" />
    <inkscape:perspective
       id="perspective4174"
       inkscape:persp3d-origin="25 : 16.666667 : 1"
       inkscape:vp_x="0 : 25 : 1"
       inkscape:vp_y="0 : 1000 : 0"
       inkscape:vp_z="50 : 25 : 1"
       sodipodi:type="inkscape:persp3d" />
    <inkscape:perspective
       id="perspective4172"
       inkscape:persp3d-origin="32 : 21.333333 : 1"
       inkscape:vp_x="0 : 32 : 1"
       inkscape:vp_y="0 : 1000 : 0"
       inkscape:vp_z="64 : 32 : 1"
       sodipodi:type="inkscape:persp3d" />
    <inkscape:perspective
       id="perspective4170"
       inkscape:persp3d-origin="50 : 33.333333 : 1"
       inkscape:vp_x="0 : 50 : 1"
       inkscape:vp_y="0 : 1000 : 0"
       inkscape:vp_z="100 : 50 : 1"
       sodipodi:type="inkscape:persp3d" />
    <inkscape:perspective
       id="perspective4168"
       inkscape:persp3d-origin="75 : 40 : 1"
       inkscape:vp_x="0 : 60 : 1"
       inkscape:vp_y="0 : 1000 : 0"
       inkscape:vp_z="150 : 60 : 1"
       sodipodi:type="inkscape:persp3d" />
    <inkscape:perspective
       id="perspective4166"
       inkscape:persp3d-origin="372.04724 : 350.78739 : 1"
       inkscape:vp_x="0 : 526.18109 : 1"
       inkscape:vp_y="0 : 1000 : 0"
       inkscape:vp_z="744.09448 : 526.18109 : 1"
       sodipodi:type="inkscape:persp3d" />
    <inkscape:perspective
       id="perspective4164"
       inkscape:persp3d-origin="0.5 : 0.33333333 : 1"
       inkscape:vp_x="0 : 0.5 : 1"
       inkscape:vp_y="0 : 1000 : 0"
       inkscape:vp_z="1 : 0.5 : 1"
       sodipodi:type="inkscape:persp3d" />
    <inkscape:perspective
       id="perspective4162"
       inkscape:persp3d-origin="25 : 10 : 1"
       inkscape:vp_x="0 : 15 : 1"
       inkscape:vp_y="0 : 1000 : 0"
       inkscape:vp_z="50 : 15 : 1"
       sodipodi:type="inkscape:persp3d" />
  </g>
  <sodipodi:namedview
     id="base"
     bordercolor="#666666"
     borderopacity="1.0"
     gridtolerance="10000"
     guidetolerance="10"
     inkscape:current-layer="text3750"
     inkscape:cx="156.14181"
     inkscape:cy="91.121562"
     inkscape:document-units="px"
     inkscape:guide-bbox="true"
     inkscape:object-nodes="true"
     inkscape:pageopacity="0.0"
     inkscape:pageshadow="2"
     inkscape:window-height="874"
     inkscape:window-width="1400"
     inkscape:window-x="33"
     inkscape:window-y="37"
     inkscape:zoom="2.1454856"
     objecttolerance="20"
     pagecolor="#ffffff"
     showgrid="true"
     showguides="true"
     inkscape:showpageshadow="2"
     inkscape:pagecheckerboard="0"
     inkscape:deskcolor="#d1d1d1"
     inkscape:window-maximized="0">
    <inkscape:grid
       id="grid2383"
       enabled="true"
       type="xygrid"
       visible="true"
       originx="0"
       originy="0"
       spacingy="1"
       spacingx="1"
       units="px" />
  </sodipodi:namedview>
  <g
     id="layer1"
     inkscape:groupmode="layer"
     inkscape:label="Layer 1">
    <g
       id="g3614"
       inkscape:label="Layer 1">
      <path
         id="path3059"
         class="cls-7"
         d="M237,44h40.5"
         sodipodi:nodetypes="cc" />
      <path
         id="path3061"
         class="cls-7"
         d="M189.9,34h-36.9"
         sodipodi:nodetypes="cc" />
    </g>
    <path
       id="path3624"
       class="cls-7"
       d="M236.9,119h40.6"
       sodipodi:nodetypes="cc" />
    <path
       id="path3626"
       class="cls-7"
       d="M189.8,109h-26.8v-15l95-35v-15"
       sodipodi:nodetypes="ccc" />
    <path
       id="path3628"
       class="cls-7"
       d="M190.8,129h-37.8"
       sodipodi:nodetypes="cc" />
    <path
       id="path3636"
       class="cls-7"
       d="M189.8,54h-26.8v15l95,35v15"
       sodipodi:nodetypes="ccc" />
    <g
       id="g3966">
      <path
         id="path3172"
         class="cls-7"
         d="M186.3,137.5h16.3c16.5,0,24.8-12.9,27.2-17.2.5-.9.8-1.4.8-1.3s-.2-.4-.7-1.2c-2.3-4.2-10.7-17.3-27.3-17.3h-16.3c8.7,11,8.7,26,0,37Z"
         sodipodi:nodetypes="ccsssccc" />
      <path
         id="path3166"
         class="cls-6"
         style="fill:#ffffff;stroke:#000000;stroke-width:1.4px"
         d="m 100.63116,23.668852 a 4,4 0 0 1 -4.000003,4 4,4 0 0 1 -4,-4 4,4 0 0 1 4,-4 4,4 0 0 1 4.000003,4 z" />
    </g>
    <path
       id="path3970"
       class="cls-7"
       d="M186.3,62.5h16.3c16.5,0,24.8-12.9,27.2-17.2.5-.9.8-1.4.8-1.3s-.2-.4-.7-1.2c-2.3-4.2-10.7-17.3-27.3-17.3h-16.3c8.7,11,8.7,26,0,37Z"
       sodipodi:nodetypes="ccsssccc" />
    <path
       id="path3972"
       class="cls-6"
       style="fill:#ffffff;stroke:#000000;stroke-width:1.4px"
       d="m 238.14862,43.781513 a 4,4 0 0 1 -4,4 4,4 0 0 1 -4,-4 4,4 0 0 1 4,-4 4,4 0 0 1 4,4 z" />
    <g
       id="g2724">
      <path
         id="path2713"
         class="cls-7"
         d="M116.5,147.5h19c10.2,0,18.5-8.3,18.5-18.5s-8.3-18.5-18.5-18.5h-19v37Z"
         sodipodi:nodetypes="ccsccc" />
    </g>
    <g
       id="g2749">
      <path
         id="path2755"
         class="cls-7"
         d="M116.5,52.5h19c10.2,0,18.5-8.3,18.5-18.5s-8.3-18.5-18.5-18.5h-19v37Z"
         sodipodi:nodetypes="ccsccc" />
    </g>
    <g
       id="g4176"
       inkscape:label="Layer 1">
      <path
         id="path4178"
         class="cls-7"
         d="M101.2,24h15.4"
         sodipodi:nodetypes="cc" />
      <path
         id="path4180"
         class="cls-7"
         d="M53.7,24h-30.7"
         sodipodi:nodetypes="cc" />
      <path
         id="path2638"
         class="cls-2"
         d="m 53,1.6 v 44.8 l 2.1,-1.1 37.649418,-20.346173 -0.3,-3.9 L 55.1,2.7 Z M 54.326013,3.7665845 93.534593,22.953536 54.00985,44.819514 Z"
         sodipodi:nodetypes="ccccccccccc"
         style="stroke-width:1;stroke-dasharray:none" />
      <path
         id="path2671"
         class="cls-7"
         style="fill:none;stroke:#000000;stroke-width:1.4px"
         d="m 237.65141,118.84682 a 4,4 0 0 1 -4,4 4,4 0 0 1 -4,-4 4,4 0 0 1 4,-4 4,4 0 0 1 4,4 z" />
      <path
         class="cls-2"
         d="M80.3,46.4"
         id="path1" />
    </g>
    <g
       id="g3721"
       inkscape:label="Layer 1"
       transform="translate(267.79974,104.53967)">
      <path
         id="path3252"
         class="cls-5"
         style="fill:none;stroke:#000000;stroke-width:1.4px;stroke-linecap:square"
         d="M 15,14.5 A 2.5,2.5 0 0 1 12.5,17 2.5,2.5 0 0 1 10,14.5 2.5,2.5 0 0 1 12.5,12 2.5,2.5 0 0 1 15,14.5 Z" />
    </g>
    <g
       id="g3724"
       inkscape:label="Layer 1"
       transform="translate(267.87463,29.781955)">
      <path
         id="path3726"
         class="cls-5"
         style="fill:none;stroke:#000000;stroke-width:1.4px;stroke-linecap:square"
         d="M 15,14.5 A 2.5,2.5 0 0 1 12.5,17 2.5,2.5 0 0 1 10,14.5 2.5,2.5 0 0 1 12.5,12 2.5,2.5 0 0 1 15,14.5 Z" />
    </g>
    <path
       id="path3736"
       class="cls-8"
       d="M288,111h10"
       style="stroke-width:0.6;stroke-dasharray:none" />
    <g
       id="g3738"
       inkscape:label="Layer 1"
       transform="translate(63.063142,66.391013)">
      <path
         id="path3740"
         class="cls-5"
         style="fill:none;stroke:#000000;stroke-width:1.4px;stroke-linecap:square"
         d="M 15,14.5 A 2.5,2.5 0 0 1 12.5,17 2.5,2.5 0 0 1 10,14.5 2.5,2.5 0 0 1 12.5,12 2.5,2.5 0 0 1 15,14.5 Z" />
    </g>
    <g
       id="g3742"
       inkscape:label="Layer 1"
       transform="translate(7.6025551,9.1754975)">
      <path
         id="path3744"
         class="cls-5"
         style="fill:none;stroke:#000000;stroke-width:1.4px;stroke-linecap:square"
         d="M 15,14.5 A 2.5,2.5 0 0 1 12.5,17 2.5,2.5 0 0 1 10,14.5 2.5,2.5 0 0 1 12.5,12 2.5,2.5 0 0 1 15,14.5 Z" />
    </g>
    <path
       id="path3746"
       class="cls-3"
       style="stroke:#000000;stroke-width:1.4px;stroke-linejoin:round"
       d="m 40.505299,24.187037 a 2.5,2.5 0 0 1 -2.5,2.5 2.5,2.5 0 0 1 -2.5,-2.5 2.5,2.5 0 0 1 2.5,-2.5 2.5,2.5 0 0 1 2.5,2.5 z" />
    <path
       id="path3748"
       class="cls-3"
       style="stroke:#000000;stroke-width:1.4px;stroke-linejoin:round"
       d="m 260.45508,118.82574 a 2.5,2.5 0 0 1 -2.5,2.5 2.5,2.5 0 0 1 -2.5,-2.5 2.5,2.5 0 0 1 2.5,-2.5 2.5,2.5 0 0 1 2.5,2.5 z" />
    <g
       id="text3750"
       class="cls-4"
       sodipodi:linespacing="100%">
      <path
         d="m 14.826706,20.629153 c 0,-2.663808 -1.475894,-4.373684 -3.671735,-4.373684 H 5.7913586 c -0.3239766,0 -0.4859649,0 -0.4859649,0.341975 0,0.179987 0.1259909,0.179987 0.4679662,0.179987 0.4499675,0 0.9539311,0 0.9539311,0.287979 0,0.107992 0,0.161988 -0.035997,0.269981 l -2.4658218,9.917283 c -0.1619883,0.629954 -0.2699805,0.773944 -1.3679012,0.773944 -0.3239765,0 -0.4859648,0 -0.4859648,0.341975 0,0.179987 0.1439896,0.179987 0.4319688,0.179987 h 5.2916175 c 3.3297589,0 6.7315139,-3.815724 6.7315139,-7.919427 z m -1.349903,-0.665952 c 0,1.043924 -0.503963,3.941715 -1.637881,5.66959 -0.917934,1.3859 -2.35783,2.393827 -4.0317091,2.393827 h -1.853866 c -0.5219623,0 -0.539961,-0.018 -0.539961,-0.215984 0,-0.14399 0.035997,-0.28798 0.071995,-0.413971 l 2.4838205,-9.935282 c 0.1619883,-0.68395 0.2699805,-0.68395 0.8819363,-0.68395 H 10.61501 c 1.961858,0 2.861793,1.439896 2.861793,3.18577 z"
         id="text3"
         style="font-style:italic;font-size:17.9987px;font-family:'Latin Modern Roman';-inkscape-font-specification:'Latin Modern Roman,  Italic';stroke-width:1.09906"
         aria-label="D" />
      <text
         xml:space="preserve"
         style="font-style:italic;font-size:21.3333px;font-family:'Latin Modern Roman';-inkscape-font-specification:'Latin Modern Roman,  Italic';fill:#000000;stroke-width:1.30267"
         x="34.640068"
         y="-0.34072199"
         id="text5"><tspan
           sodipodi:role="line"
           id="tspan3"></tspan></text>
      <path
         d="m 68.528887,82.218345 c 0,-0.173592 -0.173592,-0.173592 -0.22567,-0.173592 -0.0868,0 -0.138873,0 -0.190951,0.05208 -0.03472,0.03472 -0.173592,0.381902 -0.260388,0.572854 -0.954756,2.326132 -1.666483,3.315607 -4.253004,3.315607 h -2.117822 c -0.503417,0 -0.520776,-0.01736 -0.520776,-0.208311 0,-0.06944 0,-0.104155 0.06944,-0.347184 l 1.197784,-4.825857 h 1.510251 c 1.163066,0 1.30194,0.277747 1.30194,0.763805 0,0.312465 -0.121515,0.798523 -0.156233,0.937396 0,0 -0.03472,0.104156 -0.03472,0.156233 0,0.173592 0.173592,0.173592 0.243028,0.173592 0.208311,0 0.22567,-0.06944 0.277748,-0.295106 l 0.972115,-3.853742 c 0.01736,-0.06944 0.03472,-0.173592 0.03472,-0.243029 0,-0.173592 -0.173592,-0.173592 -0.225669,-0.173592 -0.208311,0 -0.22567,0.05208 -0.277748,0.295106 -0.347184,1.319299 -0.659649,1.73592 -2.083104,1.73592 h -1.440813 l 1.07627,-4.305081 c 0.156233,-0.607572 0.277747,-0.624932 0.833242,-0.624932 h 2.1699 c 2.083104,0 2.274055,0.711728 2.274055,1.770639 0,0.156233 0,0.503417 -0.0868,1.058911 0,0.0868 -0.03472,0.260388 -0.03472,0.347184 0,0.190951 0.156232,0.190951 0.243028,0.190951 0.208311,0 0.208311,-0.05208 0.260388,-0.364543 l 0.416621,-3.072578 c 0,-0.05208 0.03472,-0.190952 0.03472,-0.243029 0,-0.190951 -0.138873,-0.190951 -0.43398,-0.190951 h -7.828998 c -0.295107,0 -0.45134,0 -0.45134,0.329824 0,0.173592 0.138874,0.173592 0.416621,0.173592 0.954756,0 0.954756,0.138874 0.954756,0.312466 0,0.05208 0,0.0868 -0.06944,0.329825 l -2.343492,9.426045 c -0.156232,0.607572 -0.260388,0.746446 -1.319299,0.746446 -0.312465,0 -0.468698,0 -0.468698,0.329825 0,0.173591 0.138873,0.173591 0.416621,0.173591 h 8.054668 c 0.347184,0 0.364543,-0.01736 0.468699,-0.277747 l 1.527609,-3.784305 c 0.06944,-0.156233 0.06944,-0.208311 0.06944,-0.208311 z"
         id="text6"
         style="font-style:italic;font-size:17.3592px;font-family:'Latin Modern Roman';-inkscape-font-specification:'Latin Modern Roman,  Italic';stroke-width:1.06"
         aria-label="E" />
      <path
         d="m 296.21272,125.41163 c 0,-0.12194 -0.0697,-0.17419 -0.17419,-0.17419 -0.10452,0 -0.13936,0.0697 -0.19162,0.26129 -0.31355,0.9929 -1.09742,1.77678 -1.91613,1.77678 -0.78387,0 -1.04516,-0.48775 -1.04516,-1.98582 3.39678,-1.5329 4.96452,-5.13872 4.96452,-7.66453 0,-2.52581 -1.48064,-4.49421 -3.88452,-4.49421 -3.5013,0 -7.03744,4.14582 -7.03744,8.1697 0,2.5084 1.49807,4.45937 3.90195,4.45937 0.54,0 1.06258,-0.0871 1.56774,-0.26129 -0.15677,1.09742 -0.19161,1.27161 -0.19161,1.72452 0,0.40064 0,1.55032 1.30645,1.55032 0.88839,0 1.46323,-0.62709 1.82904,-1.18451 0.54,-0.85356 0.87097,-2.09033 0.87097,-2.17743 z m 0.27871,-8.37873 c 0,1.60258 -0.80129,5.90518 -3.62323,7.68195 -0.0348,-0.85355 -0.20904,-1.88129 -1.3413,-1.88129 -0.94065,0 -1.65484,1.01032 -1.65484,1.81162 0,0.29613 0.0348,0.38322 0.10452,0.54 -1.23678,-0.52258 -1.68969,-1.93356 -1.68969,-3.30969 0,-0.81871 0.29613,-3.64065 1.89872,-5.97485 0.85355,-1.23678 2.26452,-2.38646 3.69291,-2.38646 1.58517,0 2.61291,1.42839 2.61291,3.51872 z m -4.02388,7.92583 c -0.22645,0.12193 -0.85355,0.41806 -1.55033,0.41806 -0.15677,0 -0.69677,0 -0.69677,-0.73161 0,-0.64452 0.57484,-1.46323 1.30645,-1.46323 0.83613,0 0.97549,0.57484 0.97549,1.21936 0,0.17419 -0.0174,0.38322 -0.0348,0.55742 z"
         id="text7"
         style="font-style:italic;font-size:17.4194px;font-family:'Latin Modern Roman';-inkscape-font-specification:'Latin Modern Roman,  Italic';stroke-width:1.06368"
         aria-label="Q" />
      <path
         d="m 295.93893,50.191977 c 0,-0.115613 -0.0661,-0.165162 -0.16517,-0.165162 -0.0991,0 -0.13213,0.06607 -0.18167,0.247743 -0.2973,0.941423 -1.04053,1.684652 -1.81679,1.684652 -0.74323,0 -0.99097,-0.462453 -0.99097,-1.882846 3.22066,-1.453426 4.70712,-4.872279 4.70712,-7.267128 0,-2.394849 -1.40388,-4.261179 -3.68311,-4.261179 -3.31976,0 -6.67255,3.930855 -6.67255,7.746097 0,2.378333 1.42039,4.228147 3.69963,4.228147 0.512,0 1.00749,-0.08258 1.48646,-0.247743 -0.14865,1.040521 -0.18168,1.205683 -0.18168,1.635104 0,0.379872 0,1.469941 1.23871,1.469941 0.84233,0 1.38737,-0.594583 1.73421,-1.123101 0.512,-0.809294 0.82581,-1.981944 0.82581,-2.064525 z m 0.26425,-7.944292 c 0,1.519491 -0.75974,5.598992 -3.43536,7.283644 -0.033,-0.809294 -0.1982,-1.783749 -1.27175,-1.783749 -0.89188,0 -1.56904,0.957939 -1.56904,1.717684 0,0.280776 0.033,0.363357 0.0991,0.512002 -1.17265,-0.495486 -1.60208,-1.833298 -1.60208,-3.138077 0,-0.776262 0.28078,-3.451886 1.80027,-5.665057 0.80929,-1.17265 2.14711,-2.262719 3.50143,-2.262719 1.50298,0 2.47743,1.354328 2.47743,3.336272 z m -3.81524,7.514871 c -0.21471,0.115613 -0.80929,0.396389 -1.46994,0.396389 -0.14864,0 -0.66065,0 -0.66065,-0.693681 0,-0.611099 0.54504,-1.38736 1.23872,-1.38736 0.79278,0 0.92491,0.545034 0.92491,1.156133 0,0.165162 -0.0165,0.363357 -0.033,0.528519 z"
         id="text8"
         style="font-style:italic;font-size:16.5162px;font-family:'Latin Modern Roman';-inkscape-font-specification:'Latin Modern Roman,  Italic';stroke-width:1.00853"
         aria-label="Q" />
    </g>
    <path
       id="path4184"
       class="cls-7"
       d="M117,44h-14v75h14"
       sodipodi:nodetypes="cccc" />
    <path
       id="path4186"
       class="cls-7"
       d="M118,139H38V24"
       sodipodi:nodetypes="ccc" />
    <path
       id="path4190"
       class="cls-3"
       style="stroke:#000000;stroke-width:1.4px;stroke-linejoin:round"
       d="m 260.71722,44.110973 a 2.5,2.5 0 0 1 -2.5,2.5 2.5,2.5 0 0 1 -2.5,-2.5 2.5,2.5 0 0 1 2.5,-2.5 2.5,2.5 0 0 1 2.5,2.5 z" />
    <path
       id="path4192"
       class="cls-3"
       style="stroke:#000000;stroke-width:1.4px;stroke-linejoin:round"
       d="m 105.54446,80.979362 a 2.5,2.5 0 0 1 -2.5,2.5 2.5,2.5 0 0 1 -2.5,-2.5 2.5,2.5 0 0 1 2.5,-2.5 2.5,2.5 0 0 1 2.5,2.5 z" />
    <path
       id="path4194"
       class="cls-7"
       d="M103,81h-25" />
    <path
       class="cls-7"
       d="M53,24"
       id="path4" />
  </g>
  <path
     class="cls-7"
     d="M119-17.7"
     id="path5" />
  <path
     class="cls-7"
     d="M10.2-24.3"
     id="path6" />
</svg>
