<?xml version="1.0" encoding="UTF-8" standalone="no"?>
<svg
   id="svg2"
   version="1.1"
   viewBox="0 0 200 125"
   sodipodi:docname="SR-FF.svg"
   inkscape:version="1.3.2 (091e20e, 2023-11-25)"
   xmlns:inkscape="http://www.inkscape.org/namespaces/inkscape"
   xmlns:sodipodi="http://sodipodi.sourceforge.net/DTD/sodipodi-0.dtd"
   xmlns="http://www.w3.org/2000/svg"
   xmlns:svg="http://www.w3.org/2000/svg">
  <defs
     id="defs1">
    <style
       id="style1">
      .cls-1 {
        font-family: LMRoman12-Regular, 'Latin Modern Roman';
        font-size: 16px;
      }

      .cls-1, .cls-2, .cls-3, .cls-4 {
        fill: #000;
      }

      .cls-1, .cls-5 {
        isolation: isolate;
      }

      .cls-6 {
        fill: #edd400;
        stroke-width: .5px;
      }

      .cls-6, .cls-7, .cls-8, .cls-9, .cls-4 {
        stroke: #000;
      }

      .cls-6, .cls-4 {
        stroke-linejoin: round;
      }

      .cls-7 {
        stroke-linecap: square;
      }

      .cls-7, .cls-8, .cls-9 {
        fill: none;
      }

      .cls-2 {
        stroke-miterlimit: 6;
      }

      .cls-2, .cls-3 {
        stroke: #fff;
      }

      .cls-8, .cls-4 {
        stroke-width: 1.4px;
      }
    </style>
  </defs>
  <g
     id="_defs"
     data-name="&amp;lt;defs">
    <inkscape:perspective
       id="perspective10"
       inkscape:persp3d-origin="372.04724 : 350.78739 : 1"
       inkscape:vp_x="0 : 526.18109 : 1"
       inkscape:vp_y="0 : 1000 : 0"
       inkscape:vp_z="744.09448 : 526.18109 : 1"
       sodipodi:type="inkscape:persp3d" />
    <inkscape:perspective
       id="perspective2557"
       inkscape:persp3d-origin="25 : 16.666667 : 1"
       inkscape:vp_x="0 : 25 : 1"
       inkscape:vp_y="0 : 1000 : 0"
       inkscape:vp_z="50 : 25 : 1"
       sodipodi:type="inkscape:persp3d" />
    <inkscape:perspective
       id="perspective5533"
       inkscape:persp3d-origin="32 : 21.333333 : 1"
       inkscape:vp_x="0 : 32 : 1"
       inkscape:vp_y="0 : 1000 : 0"
       inkscape:vp_z="64 : 32 : 1"
       sodipodi:type="inkscape:persp3d" />
    <inkscape:perspective
       id="perspective3275"
       inkscape:persp3d-origin="50 : 33.333333 : 1"
       inkscape:vp_x="0 : 50 : 1"
       inkscape:vp_y="0 : 1000 : 0"
       inkscape:vp_z="100 : 50 : 1"
       sodipodi:type="inkscape:persp3d" />
    <inkscape:perspective
       id="perspective2777"
       inkscape:persp3d-origin="75 : 40 : 1"
       inkscape:vp_x="0 : 60 : 1"
       inkscape:vp_y="0 : 1000 : 0"
       inkscape:vp_z="150 : 60 : 1"
       sodipodi:type="inkscape:persp3d" />
    <inkscape:perspective
       id="perspective2819"
       inkscape:persp3d-origin="372.04724 : 350.78739 : 1"
       inkscape:vp_x="0 : 526.18109 : 1"
       inkscape:vp_y="0 : 1000 : 0"
       inkscape:vp_z="744.09448 : 526.18109 : 1"
       sodipodi:type="inkscape:persp3d" />
    <inkscape:perspective
       id="perspective2806"
       inkscape:persp3d-origin="0.5 : 0.33333333 : 1"
       inkscape:vp_x="0 : 0.5 : 1"
       inkscape:vp_y="0 : 1000 : 0"
       inkscape:vp_z="1 : 0.5 : 1"
       sodipodi:type="inkscape:persp3d" />
    <inkscape:perspective
       id="perspective2714"
       inkscape:persp3d-origin="25 : 10 : 1"
       inkscape:vp_x="0 : 15 : 1"
       inkscape:vp_y="0 : 1000 : 0"
       inkscape:vp_z="50 : 15 : 1"
       sodipodi:type="inkscape:persp3d" />
    <inkscape:perspective
       id="perspective3244"
       inkscape:persp3d-origin="16 : 10.666667 : 1"
       inkscape:vp_x="0 : 16 : 1"
       inkscape:vp_y="0 : 1000 : 0"
       inkscape:vp_z="32 : 16 : 1"
       sodipodi:type="inkscape:persp3d" />
    <inkscape:perspective
       id="perspective4786"
       inkscape:persp3d-origin="32 : 21.333333 : 1"
       inkscape:vp_x="0 : 32 : 1"
       inkscape:vp_y="0 : 1000 : 0"
       inkscape:vp_z="64 : 32 : 1"
       sodipodi:type="inkscape:persp3d" />
    <inkscape:perspective
       id="perspective4784"
       inkscape:persp3d-origin="50 : 33.333333 : 1"
       inkscape:vp_x="0 : 50 : 1"
       inkscape:vp_y="0 : 1000 : 0"
       inkscape:vp_z="100 : 50 : 1"
       sodipodi:type="inkscape:persp3d" />
    <inkscape:perspective
       id="perspective4782"
       inkscape:persp3d-origin="75 : 40 : 1"
       inkscape:vp_x="0 : 60 : 1"
       inkscape:vp_y="0 : 1000 : 0"
       inkscape:vp_z="150 : 60 : 1"
       sodipodi:type="inkscape:persp3d" />
    <inkscape:perspective
       id="perspective4780"
       inkscape:persp3d-origin="372.04724 : 350.78739 : 1"
       inkscape:vp_x="0 : 526.18109 : 1"
       inkscape:vp_y="0 : 1000 : 0"
       inkscape:vp_z="744.09448 : 526.18109 : 1"
       sodipodi:type="inkscape:persp3d" />
    <inkscape:perspective
       id="perspective4778"
       inkscape:persp3d-origin="0.5 : 0.33333333 : 1"
       inkscape:vp_x="0 : 0.5 : 1"
       inkscape:vp_y="0 : 1000 : 0"
       inkscape:vp_z="1 : 0.5 : 1"
       sodipodi:type="inkscape:persp3d" />
    <inkscape:perspective
       id="perspective4776"
       inkscape:persp3d-origin="25 : 10 : 1"
       inkscape:vp_x="0 : 15 : 1"
       inkscape:vp_y="0 : 1000 : 0"
       inkscape:vp_z="50 : 15 : 1"
       sodipodi:type="inkscape:persp3d" />
  </g>
  <sodipodi:namedview
     id="base"
     bordercolor="#666666"
     borderopacity="1.0"
     gridtolerance="10000"
     guidetolerance="10"
     inkscape:current-layer="layer1"
     inkscape:cx="100.61282"
     inkscape:cy="53.880087"
     inkscape:document-units="px"
     inkscape:guide-bbox="true"
     inkscape:object-nodes="true"
     inkscape:pageopacity="0.0"
     inkscape:pageshadow="2"
     inkscape:window-height="891"
     inkscape:window-width="1472"
     inkscape:window-x="0"
     inkscape:window-y="37"
     inkscape:zoom="3.6377076"
     objecttolerance="20"
     pagecolor="#ffffff"
     showgrid="true"
     showguides="true"
     inkscape:showpageshadow="2"
     inkscape:pagecheckerboard="0"
     inkscape:deskcolor="#d1d1d1"
     inkscape:window-maximized="0">
    <inkscape:grid
       id="grid2383"
       enabled="true"
       type="xygrid"
       visible="true"
       originx="0"
       originy="0"
       spacingy="1"
       spacingx="1"
       units="px" />
  </sodipodi:namedview>
  <g
     id="layer1"
     inkscape:groupmode="layer"
     inkscape:label="Layer 1">
    <g
       id="g3721"
       inkscape:label="Layer 1"
       transform="translate(9.6624978,95.384328)">
      <path
         id="path3252"
         class="cls-7"
         style="fill:none;stroke:#000000;stroke-linecap:square"
         d="M 15,14.5 A 2.5,2.5 0 0 1 12.5,17 2.5,2.5 0 0 1 10,14.5 2.5,2.5 0 0 1 12.5,12 2.5,2.5 0 0 1 15,14.5 Z" />
    </g>
    <path
       id="path2884-9"
       class="cls-3"
       d="M 76.251103,6.0289109 V 46.028911 h 20.5 c 11.299997,0 19.999997,-9 19.999997,-20 0,-11 -8.7,-20.0000001 -19.999997,-20.0000001 z m 2.9,2.9 h 17.6 c 9.799997,0 16.699997,7.6000001 16.699997,17.1000001 0,9.5 -7.4,17.1 -17.099997,17.1 h -17.1 V 8.9289109 Z"
       sodipodi:nodetypes="ccccccsccccsssssccc"
       style="display:inline;fill:#000000;stroke:#ffffff" />
    <g
       id="g4797"
       inkscape:label="Layer 1">
      <path
         id="path4799"
         class="cls-2"
         d="M76,80v40h20.5c11.3,0,20-9,20-20s-8.7-20-20-20h-20.5ZM78.9,82.9h17.6c9.8,0,16.7,7.6,16.7,17.1s-7.4,17.1-17.1,17.1h-17.1v-34.3Z"
         sodipodi:nodetypes="ccccccsccccsssssccc" />
      <path
         id="path4801"
         class="cls-9"
         style="fill:none;stroke:#000000"
         d="m 123.86858,25 a 4,4 0 0 1 -4,4 4,4 0 0 1 -4,-4 4,4 0 0 1 4,-4 4,4 0 0 1 4,4 z" />
    </g>
    <g
       id="g3724"
       inkscape:label="Layer 1"
       transform="translate(165.23712,85.603907)">
      <path
         id="path3726"
         class="cls-7"
         style="fill:none;stroke:#000000;stroke-linecap:square"
         d="M 15,14.5 A 2.5,2.5 0 0 1 12.5,17 2.5,2.5 0 0 1 10,14.5 2.5,2.5 0 0 1 12.5,12 2.5,2.5 0 0 1 15,14.5 Z" />
    </g>
    <g
       id="text3728"
       class="cls-5"
       sodipodi:linespacing="100%">
      <path
         d="m 12.175051,17.271927 c 0,-1.415957 -0.71694,-2.222514 -1.613115,-2.50929 L 8.8233567,14.242855 c -0.573552,-0.161311 -1.4159565,-0.41224 -1.4159565,-1.756503 0,-1.541421 1.4159565,-3.1007652 2.9215308,-3.1007652 2.15082,0 2.15082,2.0074322 2.15082,2.5630602 0,0.233006 0,0.537705 -0.07169,1.057487 -0.03585,0.107541 -0.03585,0.161311 -0.03585,0.161311 0,0.179235 0.125464,0.179235 0.250929,0.179235 0.197158,0 0.233005,-0.01792 0.304699,-0.304699 L 13.85986,9.3138928 c 0.01792,-0.05377 0.05377,-0.1971585 0.05377,-0.250929 0,-0.1613115 -0.179235,-0.1613115 -0.179235,-0.1613115 -0.05377,0 -0.107541,0 -0.250929,0.1971585 L 12.676909,10.174221 C 12.01374,8.9016523 10.687401,8.9016523 10.364778,8.9016523 c -2.0970498,0 -4.0686349,2.0791257 -4.0686349,4.2299457 0,0.394317 0.035847,1.129181 0.681093,1.828197 0.3763936,0.412241 0.6990166,0.501858 1.9357381,0.860328 l 1.0933338,0.322623 c 0.752787,0.250929 1.07541,0.949946 1.07541,1.756503 0,1.631039 -1.3980333,3.477159 -3.0290718,3.477159 -1.3801096,0 -2.6526781,-0.699016 -2.6526781,-2.527213 0,-0.179235 0.035847,-0.66317 0.143388,-1.093334 l 0.017924,-0.143388 c 0,-0.161311 -0.143388,-0.161311 -0.2330055,-0.161311 -0.1971585,0 -0.2330055,0.01792 -0.3046995,0.304699 l -0.932022,3.728088 c -0.017924,0.05377 -0.05377,0.197159 -0.05377,0.250929 0,0.161312 0.179235,0.161312 0.179235,0.161312 0.071694,0 0.089618,-0.01792 0.2688525,-0.233006 l 0.8065575,-1.07541 c 0.4839345,0.734864 1.290492,1.308416 2.7064486,1.308416 2.1687433,0 4.1761753,-2.294208 4.1761753,-4.624263 z"
         id="text1"
         style="font-style:italic;font-size:17.9235px;font-family:LMRoman12-Regular, 'Latin Modern Roman';-inkscape-font-specification:'LMRoman12-Regular, Latin Modern Roman,  Italic';stroke-width:0.5041"
         aria-label="S" />
      <path
         d="m 14.706445,114.60783 c 0,-0.1781 -0.178106,-0.1781 -0.249348,-0.1781 -0.195917,0 -0.213727,0.0356 -0.28497,0.28496 -0.284969,0.92616 -0.783666,1.54953 -1.371416,1.54953 -0.569939,0 -0.60556,-0.51651 -0.60556,-1.01521 0,-0.53432 0.124674,-1.47828 0.195916,-2.03041 0,0 0.08905,-0.69461 0.08905,-0.94396 0,-1.13988 -0.730234,-1.76325 -1.531711,-2.08384 2.208514,-0.5165 3.704604,-1.99478 3.704604,-3.49088 0,-1.42484 -1.317984,-2.61815 -3.490877,-2.61815 H 6.6916751 c -0.3205908,0 -0.4808862,0 -0.4808862,0.3384 0,0.1781 0.1246742,0.1781 0.4630756,0.1781 0.445265,0 0.9439618,0 0.9439618,0.28497 0,0.10687 0,0.1603 -0.035621,0.26716 l -2.4400523,9.81364 c -0.1602954,0.62337 -0.267159,0.76586 -1.3536056,0.76586 -0.3205908,0 -0.4808862,0 -0.4808862,0.3384 0,0.17811 0.178106,0.17811 0.2493484,0.17811 0.6055604,0 1.2823632,-0.0356 1.9057342,-0.0356 0.6411817,0 1.3179845,0.0356 1.9413555,0.0356 0.1424848,0 0.3384014,0 0.3384014,-0.3384 0,-0.17811 -0.1424848,-0.17811 -0.4096438,-0.17811 -0.9973936,0 -0.9973936,-0.14249 -0.9973936,-0.30278 l 0.035621,-0.26716 1.2111208,-4.82667 h 1.9235448 c 1.4070371,0 1.7098181,0.94396 1.7098181,1.60295 0,0.28497 -0.142485,0.89053 -0.267159,1.3358 -0.124675,0.49869 -0.28497,1.15769 -0.28497,1.5139 0,1.38922 1.122068,1.83449 2.08384,1.83449 1.424848,0 1.959166,-1.8523 1.959166,-2.0126 z m -1.513901,-8.29974 c 0,0.32059 -0.08905,3.66899 -3.7046047,3.66899 H 7.6712581 l 1.1754996,-4.702 c 0.1424848,-0.56994 0.267159,-0.62337 0.4274544,-0.64118 0.1246742,-0.0356 0.6589922,-0.0356 0.9973939,-0.0356 1.104257,0 2.920938,0 2.920938,1.70982 z"
         id="text1-4"
         style="font-style:italic;font-size:17.8106px;font-family:LMRoman12-Regular, 'Latin Modern Roman';-inkscape-font-specification:'LMRoman12-Regular, Latin Modern Roman,  Italic';stroke-width:0.500923"
         aria-label="R" />
      <path
         d="m 194.91962,106.51316 c 0,-0.12467 -0.0713,-0.1781 -0.17811,-0.1781 -0.10686,0 -0.14249,0.0712 -0.19592,0.26716 -0.32059,1.0152 -1.12207,1.81668 -1.95916,1.81668 -0.80148,0 -1.06864,-0.4987 -1.06864,-2.03041 3.47307,-1.56733 5.07602,-5.25413 5.07602,-7.836664 0,-2.582537 -1.5139,-4.595135 -3.97176,-4.595135 -3.57993,0 -7.19548,4.238923 -7.19548,8.353169 0,2.56473 1.53171,4.55952 3.98957,4.55952 0.55213,0 1.08645,-0.0891 1.60295,-0.26716 -0.16029,1.12207 -0.19591,1.30017 -0.19591,1.76325 0,0.40964 0,1.58514 1.33579,1.58514 0.90834,0 1.49609,-0.64118 1.87012,-1.21112 0.55212,-0.87272 0.89053,-2.13727 0.89053,-2.22633 z m 0.28496,-8.566894 c 0,1.638575 -0.81928,6.037794 -3.7046,7.854474 -0.0356,-0.87272 -0.21373,-1.92354 -1.37142,-1.92354 -0.96177,0 -1.692,1.03301 -1.692,1.8523 0,0.30278 0.0356,0.39183 0.10686,0.55213 -1.26455,-0.53432 -1.72763,-1.97698 -1.72763,-3.38402 0,-0.8371 0.30278,-3.722413 1.94136,-6.109033 0.87272,-1.264553 2.31538,-2.440053 3.77584,-2.440053 1.62077,0 2.67159,1.46047 2.67159,3.597742 z m -4.11424,8.103824 c -0.23154,0.12467 -0.87272,0.42745 -1.58515,0.42745 -0.16029,0 -0.71242,0 -0.71242,-0.74804 0,-0.65899 0.58775,-1.49609 1.33579,-1.49609 0.85491,0 0.9974,0.58775 0.9974,1.24674 0,0.17811 -0.0178,0.39183 -0.0356,0.56994 z"
         id="text1-4-9"
         style="font-style:italic;font-size:17.8106px;font-family:LMRoman12-Regular, 'Latin Modern Roman';-inkscape-font-specification:'LMRoman12-Regular, Latin Modern Roman,  Italic';stroke-width:0.500923"
         aria-label="Q" />
      <path
         d="m 193.80812,31.489969 c 0,-0.124674 -0.0712,-0.178106 -0.17811,-0.178106 -0.10686,0 -0.14248,0.07124 -0.19591,0.267159 -0.32059,1.015204 -1.12207,1.816681 -1.95917,1.816681 -0.80148,0 -1.06864,-0.498697 -1.06864,-2.030408 3.47307,-1.567333 5.07603,-5.254127 5.07603,-7.836664 0,-2.582537 -1.51391,-4.595135 -3.97177,-4.595135 -3.57993,0 -7.19548,4.238923 -7.19548,8.353171 0,2.564727 1.53171,4.559514 3.98957,4.559514 0.55213,0 1.08645,-0.08905 1.60296,-0.267159 -0.1603,1.122068 -0.19592,1.300174 -0.19592,1.763249 0,0.409644 0,1.585144 1.3358,1.585144 0.90834,0 1.49609,-0.641182 1.87011,-1.211121 0.55213,-0.872719 0.89053,-2.137272 0.89053,-2.226325 z m 0.28497,-8.566899 c 0,1.638576 -0.81929,6.037794 -3.70461,7.854475 -0.0356,-0.872719 -0.21372,-1.923545 -1.37141,-1.923545 -0.96177,0 -1.69201,1.033015 -1.69201,1.852303 0,0.30278 0.0356,0.391833 0.10686,0.552128 -1.26455,-0.534318 -1.72762,-1.976976 -1.72762,-3.384014 0,-0.837098 0.30278,-3.722415 1.94135,-6.109036 0.87272,-1.264552 2.31538,-2.440052 3.77585,-2.440052 1.62076,0 2.67159,1.460469 2.67159,3.597741 z m -4.11425,8.103823 c -0.23154,0.124675 -0.87272,0.427455 -1.58514,0.427455 -0.1603,0 -0.71243,0 -0.71243,-0.748045 0,-0.658993 0.58775,-1.496091 1.3358,-1.496091 0.85491,0 0.99739,0.58775 0.99739,1.246742 0,0.178106 -0.0178,0.391833 -0.0356,0.569939 z"
         id="text1-4-9-1"
         style="font-style:italic;font-size:17.8106px;font-family:LMRoman12-Regular, 'Latin Modern Roman';-inkscape-font-specification:'LMRoman12-Regular, Latin Modern Roman,  Italic';stroke-width:0.500923"
         aria-label="Q" />
      <text
         xml:space="preserve"
         style="font-style:italic;font-size:21.3333px;font-family:LMRoman12-Regular, 'Latin Modern Roman';-inkscape-font-specification:'LMRoman12-Regular, Latin Modern Roman,  Italic';fill:#000000;stroke-width:0.6"
         x="207.41873"
         y="97.45594"
         id="text2"><tspan
           sodipodi:role="line"
           id="tspan2"
           x="207.41873"
           y="97.45594"> </tspan></text>
    </g>
    <path
       id="path3736"
       class="cls-6"
       d="M186.5,92h10" />
    <g
       id="g3738"
       inkscape:label="Layer 1"
       transform="translate(164.90487,10.662104)">
      <path
         id="path3740"
         class="cls-7"
         style="fill:none;stroke:#000000;stroke-linecap:square"
         d="M 15,14.5 A 2.5,2.5 0 0 1 12.5,17 2.5,2.5 0 0 1 10,14.5 2.5,2.5 0 0 1 12.5,12 2.5,2.5 0 0 1 15,14.5 Z" />
    </g>
    <g
       id="g3622"
       inkscape:label="Layer 1">
      <path
         id="path3624"
         class="cls-8"
         d="M123.9,100h51.1"
         sodipodi:nodetypes="cc" />
      <path
         id="path3626"
         class="cls-8"
         d="M76.8,90h-26.8v-15l95-35v-15"
         sodipodi:nodetypes="ccc" />
      <path
         id="path3628"
         class="cls-8"
         d="M77.8,110H25"
         sodipodi:nodetypes="cc" />
      <path
         id="path3636"
         class="cls-8"
         d="M76.8,35h-26.8v15l95,35v15"
         sodipodi:nodetypes="ccc" />
    </g>
    <g
       id="g3742"
       inkscape:label="Layer 1"
       transform="translate(9.8267759,0.42356793)">
      <path
         id="path3744"
         class="cls-7"
         style="fill:none;stroke:#000000;stroke-linecap:square"
         d="M 15,14.5 A 2.5,2.5 0 0 1 12.5,17 2.5,2.5 0 0 1 10,14.5 2.5,2.5 0 0 1 12.5,12 2.5,2.5 0 0 1 15,14.5 Z" />
    </g>
    <g
       id="g3614"
       inkscape:label="Layer 1">
      <path
         id="path3059"
         class="cls-8"
         d="M124,25h51"
         sodipodi:nodetypes="cc" />
      <path
         id="path3061"
         class="cls-8"
         d="M76.9,15H25"
         sodipodi:nodetypes="cc" />
      <g
         id="g4788"
         inkscape:label="Layer 1">
        <path
           id="path2884"
           class="cls-3"
           d="m 76,5 v 40 h 20.5 c 11.3,0 20,-9 20,-20 0,-11 -8.7,-20 -20,-20 z m 2.9,2.9 h 17.6 c 9.8,0 16.7,7.6 16.7,17.1 0,9.5 -7.4,17.1 -17.1,17.1 H 79 V 7.9 Z"
           sodipodi:nodetypes="ccccccsccccsssssccc"
           style="display:none" />
        <path
           id="path4008"
           class="cls-9"
           style="fill:none;stroke:#000000"
           d="m 124.25275,99.672958 a 4,4 0 0 1 -4,4.000002 4,4 0 0 1 -4,-4.000002 4,4 0 0 1 4,-4 4,4 0 0 1 4,4 z" />
      </g>
    </g>
    <path
       id="path3746"
       class="cls-4"
       style="stroke:#000000;stroke-width:1.4px;stroke-linejoin:round"
       d="m 147.56262,100.13288 a 2.5,2.5 0 0 1 -2.5,2.5 2.5,2.5 0 0 1 -2.5,-2.5 2.5,2.5 0 0 1 2.5,-2.499999 2.5,2.5 0 0 1 2.5,2.499999 z" />
    <path
       id="path3748"
       class="cls-4"
       style="stroke:#000000;stroke-width:1.4px;stroke-linejoin:round"
       d="m 147.29651,25.091135 a 2.5,2.5 0 0 1 -2.5,2.5 2.5,2.5 0 0 1 -2.5,-2.5 2.5,2.5 0 0 1 2.5,-2.5 2.5,2.5 0 0 1 2.5,2.5 z" />
    <path
       id="path4803"
       class="cls-6"
       d="M5,102h10" />
    <path
       id="path4805"
       class="cls-6"
       d="M5,7h10" />
  </g>
</svg>
